# AST/ASF file generated using VICON BodyLanguage
# -----------------------------------------------
:version 1.10
:name VICON
:units
  mass 1.0
  length 0.45
  angle deg
:documentation
   .ast/.asf automatically generated from VICON data using
   VICON BodyBuilder and BodyLanguage model FoxedUp or BRILLIANT.MOD
:root
   order TX TY TZ RX RY RZ
   axis XYZ
   position 0 0 0  
   orientation 0 -0 0 
:bonedata
  begin
     id 1 
     name lhipjoint
     direction 0.515797 -0.759363 0.396637 
     length 2.47888 
     axis 0 -0 0  XYZ
  end
  begin
     id 2 
     name lfemur
     direction 0.34202 -0.939693 0  
     length 6.81885  
     axis 0 -0 20  XYZ
    dof rx ry rz
    limits (-160.0 20.0)
           (-70.0 70.0)
           (-60.0 70.0)
  end
  begin
     id 3 
     name ltibia
     direction 0.342037 -0.939687 0   
     length 7.89258   
     axis 0 -0 20   XYZ
    dof rx
    limits (-10.0 170.0)
  end
  begin
     id 4 
     name lfoot
     direction 0.173497 -0.476678 0.861787   
     length 2.51543   
     axis -90 -1.13533e-015 20   XYZ
    dof rx rz
    limits (-45.0 90.0)
           (-70.0 20.0)
  end
  begin
     id 5 
     name ltoes
     direction 1.53564e-011 -4.21897e-011 1   
     length 1.21388   
     axis -90 -1.13533e-015 20   XYZ
    dof rx
    limits (-90.0 20.0)
  end
  begin
     id 6 
     name rhipjoint
     direction -0.489454 -0.772941 0.403729   
     length 2.43534  
     axis 0 -0 0  XYZ 
  end
  begin
     id 7 
     name rfemur
     direction -0.34202 -0.939693 0   
     length 7.10357   
     axis 0 -0 -20   XYZ
    dof rx ry rz
    limits (-160.0 20.0)
           (-70.0 70.0)
           (-70.0 60.0)
  end
  begin
     id 8 
     name rtibia
     direction -0.34202 -0.939693 0   
     length 9.16127   
     axis 0 -0 -20   XYZ
    dof rx
    limits (-10.0 170.0)
 end
 begin
     id 9 
     name rfoot
     direction -0.270974 -0.748671 0.605033   
     length 1.74894  
     axis -90 1.13533e-015 -20   XYZ
    dof rx rz
    limits (-45.0 90.0)
           (-20.0 70.0)
  end
  begin
     id 10 
     name rtoes
     direction -1.53557e-011 -4.21759e-011 1   
     length 0.787585   
     axis -90 1.13533e-015 -20   XYZ
    dof rx
    limits (-90.0 20.0)
  end
  begin
     id 11 
     name lowerback
     direction -0.0140249 0.999561 0.0260968   
     length 2.16963   
     axis 0 -0 0   XYZ
    dof rx ry rz
    limits (-20.0 45.0)
           (-30.0 30.0)
           (-30.0 30.0)
  end
  begin
     id 12 
     name upperback
     direction 0.00860018 0.999959 -0.002711   
     length 2.1726   
     axis 0 -0 0   XYZ
    dof rx ry rz
    limits (-20.0 45.0)
           (-30.0 30.0)
           (-30.0 30.0)
  end
  begin
     id 13 
     name thorax
     direction 0.015211 0.999782 -0.0143191   
     length 2.17061   
     axis 0 -0 0   XYZ
    dof rx ry rz
    limits (-20.0 45.0)
           (-30.0 30.0)
           (-30.0 30.0)
  end
  begin
     id 14 
     name lowerneck
     direction -0.0140143 0.999447 0.030145   
     length 2.26749   
     axis 0 -0 0   XYZ
    dof rx ry rz
    limits (-20.0 45.0)
           (-30.0 30.0)
           (-30.0 30.0)
  end
  begin
     id 15 
     name upperneck
     direction 0.118062 0.961438 -0.248392   
     length 2.22728   
     axis 0 -0 0   XYZ
    dof rx ry rz
    limits (-20.0 45.0)
           (-30.0 30.0)
           (-30.0 30.0)
  end
  begin
     id 16
     name head
     direction 0.0431885 0.9954 -0.085514  
     length 2.28786  
     axis 0 -0 0   XYZ
    dof rx ry rz
    limits (-20.0 45.0)
           (-30.0 30.0)
           (-30.0 30.0)
  end
  begin
     id 17 
     name lclavicle
     direction 0.912126 0.409548 0.0172323  
     length 4.31571  
     axis 0 -0 0   XYZ
    dof ry rz
    limits (-20.0 10.0)
           (0.0 20.0)
  end
  begin
     id 18 
     name lhumerus
     direction 1 -4.48977e-011 1.93091e-027   
     length 5.13658   
     axis 180 -30 -90   XYZ
    dof rx ry rz
    limits (-60.0 90.0)
           (-90.0 90.0)
           (-90.0 90.0)
  end
  begin
     id 19
     name lradius
     direction 1 -4.48916e-011 6.84018e-027   
     length 3.22473   
     axis 180 -30 -90   XYZ
    dof rx
    limits (-10.0 170.0)
  end
  begin
     id 20
     name lwrist
     direction 1 -4.48987e-011 7.01981e-027   
     length 1.61236   
     axis -4.37994e-015 90 90   XYZ
    dof ry
    limits (-180.0 0.0)
 end
  begin
     id 21 
     name lhand
     direction 1 -4.49037e-011 1.40335e-026   
     length 0.936406   
     axis -8.96029e-015 90 90   XYZ
    dof rx rz
    limits (-90.0 90.0)
           (-45.0 45.0)
  end
  begin
     id 22 
     name lfingers
     direction 1 -4.48886e-011 2.8104e-026   
     length 0.754955   
     axis -1.79203e-014 90 90   XYZ
    dof rx
    limits (0.0 90.0)
  end
  begin
     id 23
     name lthumb
     direction 0.707107 -6.34937e-011 0.707107   
     length 1.08397   
     axis -90 45 -4.48555e-014   XYZ
    dof rx rz
    limits (-45.0 45.0)
           (-45.0 45.0)
  end
  begin
     id 24 
     name rclavicle
     direction -0.947962 0.317997 0.0156638   
     length 4.86918  
     axis 0 -0 0   XYZ 
    dof ry rz
    limits (-10.0 20.0)
           (-20.0 0.0)
  end
  begin
     id 25 
     name rhumerus
     direction -1 -4.48951e-011 2.80534e-018  
     length 5.60911   
     axis 180 30 90   XYZ
    dof rx ry rz
    limits (-90.0 60.0)
           (-90.0 90.0)
           (-90.0 90.0)
  end
  begin
     id 26 
     name rradius
     direction -1 -4.4898e-011 2.11315e-027   
     length 3.38704   
     axis 180 30 90   XYZ
    dof rx
    limits (-10.0 170.0)
  end
  begin
     id 27 
     name rwrist
     direction -1 -4.48933e-011 7.02314e-027   
     length 1.69352   
     axis -4.37994e-015 -90 -90   XYZ
    dof ry
    limits (-180.0 0.0)
  end
  begin
     id 28
     name rhand
     direction -1 -4.48937e-011 1.40458e-026   
     length 0.755878   
     axis -8.96029e-015 -90 -90   XYZ
    dof rx rz
    limits (-90.0 90.0)
           (-45.0 45.0)
  end
  begin
     id 29
     name rfingers
     direction -1 -4.4901e-011 2.80737e-026   
     length 0.609409   
     axis -1.79203e-014 -90 -90   XYZ
    dof rx
    limits (0.0 90.0)
  end
  begin
     id 30
     name rthumb
     direction -0.707107 -6.34968e-011 0.707107   
     length 0.874992   
     axis -90 -45 4.48555e-014   XYZ
    dof rx rz
    limits (-45.0 45.0)
           (-45.0 45.0)
  end
:hierarchy
  begin
    root lhipjoint rhipjoint lowerback
    lhipjoint lfemur
    lfemur ltibia
    ltibia lfoot
    lfoot ltoes
    rhipjoint rfemur
    rfemur rtibia
    rtibia rfoot
    rfoot rtoes
    lowerback upperback
    upperback thorax
    thorax lowerneck lclavicle rclavicle
    lowerneck upperneck
    upperneck head
    lclavicle lhumerus
    lhumerus lradius
    lradius lwrist
    lwrist lhand lthumb
    lhand lfingers
    rclavicle rhumerus
    rhumerus rradius
    rradius rwrist
    rwrist rhand rthumb
    rhand rfingers
  end

#!OML:ASF C:\ViconDB\ViconDB\414\Spring2016\041811\Spring2016.ASF
:FULLY-SPECIFIED
:DEGREES
78
root 8.06272 17.6567 3.84936 -164.69 -3.67525 181.561
lowerback 24.0846 1.03175 0.499299
upperback 4.37111 0.62119 -0.0631416
thorax -8.58337 -0.0696232 -0.493901
lowerneck -17.3327 -1.76843 -10.1089
upperneck 9.64671 -2.27836 14.5153
head 6.05993 -0.459521 6.14703
rclavicle 1.63997e-014 2.28602e-015
rhumerus -52.7164 -1.41934 -88.2549
rradius 52.2501
rwrist 18.7536
rhand -35.2711 -18.5526
rfingers 7.12502
rthumb -8.40645 -48.3653
lclavicle 1.63997e-014 2.28602e-015
lhumerus -40.5711 -8.23368 80.9515
lradius 22.832
lwrist -31.5997
lhand -33.3552 21.0228
lfingers 7.12502
lthumb -6.55714 50.9012
rfemur -35.5262 -11.2405 24.0789
rtibia 42.565
rfoot -11.2802 -10.2219
rtoes -9.97968
lfemur -41.4843 2.58426 -12.0388
ltibia 46.0202
lfoot -20.3179 -6.3305
ltoes -8.69162
79
root 8.06368 17.5711 3.88178 -164.215 -3.71905 181.464
lowerback 24.9557 1.01464 0.509602
upperback 4.49695 0.540621 -0.143182
thorax -8.89541 -0.13272 -0.564774
lowerneck -17.1918 -2.04406 -10.2559
upperneck 9.05746 -2.62454 14.8053
head 5.90686 -0.630609 6.21985
rclavicle -1.21259e-014 9.93923e-016
rhumerus -53.7909 -1.26546 -88.7533
rradius 52.8545
rwrist 17.5597
rhand -35.0331 -18.2031
rfingers 7.12502
rthumb -8.17672 -48.0249
lclavicle -1.21259e-014 9.93923e-016
lhumerus -41.3224 -8.85324 80.8031
lradius 22.6887
lwrist -31.1766
lhand -33.3994 20.9191
lfingers 7.12502
lthumb -6.59983 50.7963
rfemur -37.2403 -11.3321 24.1129
rtibia 44.3763
rfoot -10.885 -10.6332
rtoes -9.66168
lfemur -43.0622 2.86174 -12.2472
ltibia 47.4578
lfoot -20.5706 -6.6636
ltoes -8.75493
80
root 8.06496 17.4851 3.90873 -163.731 -3.72395 181.331
lowerback 25.7022 0.985784 0.434148
upperback 4.63331 0.424895 -0.192418
thorax -9.13036 -0.208577 -0.538987
lowerneck -17.0778 -2.27056 -10.6152
upperneck 8.46583 -2.88245 15.2887
head 5.75498 -0.755614 6.40502
rclavicle -3.37934e-015 -1.22253e-014
rhumerus -54.8138 -0.94412 -89.1538
rradius 53.1693
rwrist 17.2177
rhand -35.0849 -17.9491
rfingers 7.12502
rthumb -8.22668 -47.769
lclavicle -3.37934e-015 -1.22253e-014
lhumerus -42.135 -9.18727 80.68
lradius 22.5793
lwrist -31.2262
lhand -33.4377 20.5762
lfingers 7.12502
lthumb -6.63681 50.4522
rfemur -38.9284 -11.3054 24.0749
rtibia 46.1694
rfoot -10.4108 -10.9689
rtoes -9.44012
lfemur -44.5869 3.12736 -12.4953
ltibia 48.8825
lfoot -20.8488 -7.00986
ltoes -8.74866
81
root 8.07156 17.4225 3.93333 -163.271 -3.7572 181.16
lowerback 26.473 0.96853 0.243782
upperback 4.76348 0.290123 -0.237431
thorax -9.38337 -0.29008 -0.43394
lowerneck -16.9548 -2.43905 -10.8255
upperneck 7.84641 -3.07414 15.6427
head 5.58181 -0.85467 6.52745
rclavicle 7.25564e-015 -1.11319e-014
rhumerus -55.7929 -0.700463 -89.6441
rradius 53.5077
rwrist 16.8672
rhand -34.9253 -17.678
rfingers 7.12502
rthumb -8.07263 -47.5038
lclavicle 7.25564e-015 -1.11319e-014
lhumerus -42.951 -9.35497 80.4195
lradius 22.4695
lwrist -31.7979
lhand -33.6288 20.2319
lfingers 7.12502
lthumb -6.82124 50.102
rfemur -40.4478 -11.238 24.0121
rtibia 47.7898
rfoot -9.90446 -11.2217
rtoes -9.08652
lfemur -45.9712 3.3167 -12.7491
ltibia 50.1754
lfoot -21.1527 -7.34071
ltoes -8.71712
82
root 8.07239 17.335 3.95179 -162.727 -3.76484 180.886
lowerback 27.0746 0.972227 0.0381932
upperback 4.85316 0.189071 -0.287589
thorax -9.59228 -0.348847 -0.335637
lowerneck -16.7342 -2.69268 -11.0791
upperneck 7.22522 -3.34877 15.8617
head 5.40291 -1.00476 6.60374
rclavicle 1.11319e-014 -1.12313e-014
rhumerus -56.7027 -0.725066 -89.965
rradius 53.6606
rwrist 16.7638
rhand -34.9564 -17.4423
rfingers 7.12502
rthumb -8.10265 -47.267
lclavicle 1.11319e-014 -1.12313e-014
lhumerus -44.0091 -10.4174 80.8775
lradius 22.613
lwrist -31.32
lhand -33.4692 20.5576
lfingers 7.12502
lthumb -6.66715 50.4327
rfemur -42.1244 -11.3115 23.8465
rtibia 49.4892
rfoot -9.53478 -11.5635
rtoes -8.77345
lfemur -47.4909 3.50675 -13.1459
ltibia 51.5748
lfoot -21.5439 -7.61064
ltoes -8.78516
83
root 8.07599 17.2518 3.96101 -162.342 -3.94823 180.845
lowerback 27.7388 0.868993 0.165741
upperback 5.02757 0.024571 -0.326581
thorax -9.73198 -0.454315 -0.392497
lowerneck -16.7298 -2.87086 -11.4269
upperneck 6.64761 -3.55109 16.4259
head 5.2768 -1.10133 6.82352
rclavicle 1.799e-014 1.0138e-014
rhumerus -57.4122 -0.781898 -90.3705
rradius 53.6368
rwrist 17.1055
rhand -35.089 -17.2319
rfingers 7.12502
rthumb -8.23071 -47.0515
lclavicle 1.799e-014 1.0138e-014
lhumerus -44.7696 -10.8318 80.8461
lradius 22.5848
lwrist -31.4178
lhand -33.4305 19.898
lfingers 7.12502
lthumb -6.62983 49.7743
rfemur -43.522 -11.4109 23.9518
rtibia 51.1162
rfoot -9.03672 -11.8622
rtoes -8.49967
lfemur -48.8331 3.66108 -13.2456
ltibia 52.989
lfoot -22.0341 -7.88904
ltoes -9.10797
84
root 8.07828 17.1589 3.96995 -161.899 -3.93382 180.813
lowerback 28.3579 0.880163 0.138306
upperback 5.08055 -0.00440393 -0.302101
thorax -9.98479 -0.481287 -0.335792
lowerneck -16.4504 -3.08148 -11.758
upperneck 6.00033 -3.75917 16.6954
head 5.07821 -1.22386 6.9385
rclavicle 5.66536e-015 -1.0138e-014
rhumerus -58.255 -0.827275 -90.6858
rradius 53.6178
rwrist 17.2051
rhand -35.133 -17.0838
rfingers 7.12502
rthumb -8.2731 -46.9018
lclavicle 5.66536e-015 -1.0138e-014
lhumerus -45.5233 -10.866 80.7129
lradius 22.268
lwrist -32.2116
lhand -33.6822 19.509
lfingers 7.12502
lthumb -6.87282 49.3775
rfemur -45.0622 -11.3142 24.0096
rtibia 52.8354
rfoot -8.5389 -12.1315
rtoes -8.17538
lfemur -50.2812 3.95261 -13.3974
ltibia 54.5213
lfoot -22.5742 -8.08495
ltoes -9.37961
85
root 8.07612 17.0564 3.97868 -161.397 -4.05682 180.812
lowerback 28.8732 0.787718 0.274396
upperback 5.11958 -0.110424 -0.287939
thorax -10.1993 -0.5456 -0.357182
lowerneck -16.3003 -3.27037 -12.0946
upperneck 5.45211 -3.96125 17.0993
head 4.93716 -1.33316 7.10401
rclavicle 3.67752e-015 2.78299e-015
rhumerus -58.9612 -0.895912 -90.9547
rradius 53.4193
rwrist 17.2149
rhand -35.5826 -16.7415
rfingers 7.12502
rthumb -8.70698 -46.5419
lclavicle 3.67752e-015 2.78299e-015
lhumerus -46.3506 -11.2446 80.8733
lradius 22.3141
lwrist -32.7459
lhand -33.1652 19.8958
lfingers 7.12502
lthumb -6.37373 49.7799
rfemur -46.6789 -11.3124 24.1394
rtibia 54.5501
rfoot -8.00165 -12.3564
rtoes -7.8235
lfemur -51.8665 4.10422 -13.4952
ltibia 56.0986
lfoot -23.0797 -8.24211
ltoes -9.66612
